<svg xmlns="http://www.w3.org/2000/svg" viewBox="0 0 128 128" style="enable-background:new 0 0 128 128" xml:space="preserve"><path style="fill:#b8d8d3" d="M97.8 40v65.3H30.3V22.6h50.1z"/><path style="fill:#318fb5" d="M97.8 40H80.4V22.6z"/><path d="M64 49.9c5.5 0 10 4.5 10 10v2.9H54v-2.9c0-5.5 4.5-10 10-10z" style="fill:#2086a5"/><ellipse cx="64" cy="43.4" rx="6.6" ry="6.5" style="fill:#eabfa2"/><path d="M28.5 66.4v-1.1c0-1 .8-1.8 1.8-1.8s1.8.8 1.8 1.8v1.1c0 1-.8 1.8-1.8 1.8s-1.8-.9-1.8-1.8zm71-26.4v65.3c0 1-.8 1.7-1.8 1.8H30.3c-1 0-1.7-.8-1.8-1.8v-33c0-1 .8-1.8 1.8-1.8s1.8.8 1.8 1.8v31.3h64V41.8H80.4c-1 0-1.7-.8-1.8-1.8V24.4H32v34c0 1-.8 1.8-1.8 1.8s-1.8-.8-1.8-1.8V22.6c0-1 .8-1.7 1.8-1.8h50.2c.5 0 .9.2 1.2.5L99 38.8c.3.3.5.8.5 1.2zm-6-1.7L82.2 26.9v11.4h11.3zm-35 11.2c-3.4-3.1-3.7-8.3-.7-11.7 3.1-3.4 8.3-3.7 11.7-.7 3.7 3.3 3.7 9.1 0 12.4 3.8 2 6.2 6 6.2 10.3v2.9c0 1-.8 1.8-1.8 1.8H54c-1 0-1.8-.8-1.8-1.8v-2.9c.1-4.3 2.5-8.2 6.3-10.3zm5.5-1.4c2.6 0 4.8-2.2 4.8-4.8s-2.2-4.8-4.8-4.8c-2.6 0-4.8 2.1-4.8 4.8 0 2.7 2.2 4.8 4.8 4.8zm-8.2 13h16.5v-1.2c0-3.9-2.7-7.2-6.5-8v5.6c0 1-.8 1.8-1.8 1.8s-1.8-.8-1.8-1.8v-5.6c-3.8.8-6.5 4.2-6.5 8v1.2zM42 70.8c0 1 .8 1.8 1.8 1.8H54c1 0 1.8-.8 1.8-1.8s-.8-1.7-1.8-1.7H43.8c-1 0-1.8.8-1.8 1.7zm17.1 0c0 1 .8 1.7 1.7 1.8h23.4c1 0 1.8-.8 1.8-1.8s-.8-1.8-1.8-1.8H60.8c-1 .1-1.7.9-1.7 1.8zm-15.3 8.8h40.5c1 0 1.8-.8 1.8-1.8s-.8-1.8-1.8-1.8H43.8c-1 0-1.8.8-1.8 1.8s.8 1.8 1.8 1.8zm0 7h28.9c1 0 1.8-.8 1.8-1.8s-.8-1.8-1.8-1.8H43.8c-1 0-1.8.8-1.8 1.8s.8 1.8 1.8 1.8zm40.5-3.5H79c-1 0-1.8.8-1.8 1.8s.8 1.8 1.8 1.8h5.2c1 0 1.8-.8 1.8-1.8s-.8-1.8-1.7-1.8zM43.8 93.6H54c1 0 1.8-.8 1.8-1.8s-.8-1.7-1.8-1.7H43.8c-1 0-1.8.8-1.8 1.8s.8 1.7 1.8 1.7zm40.5-3.5H60.8c-1 0-1.8.8-1.8 1.8s.8 1.8 1.8 1.8h23.4c1 0 1.8-.8 1.8-1.8s-.8-1.8-1.7-1.8z" style="fill:#172956"/></svg>