<svg xmlns="http://www.w3.org/2000/svg" viewBox="0 0 128 128" style="enable-background:new 0 0 128 128" xml:space="preserve"><path style="fill:#191919" d="M34.886 87.204h-4c-.091 0-.183 0-.274-.03v6.145c.091-.03.183-.03.274-.03h4c.106 0 .198 0 .289.03v-6.145c-.091.03-.182.03-.289.03zm0-21.295h-4c-.091 0-.183 0-.274-.03v6.145c.091-.03.183-.03.274-.03h4c.106 0 .198 0 .289.03v-6.145c-.091.03-.182.03-.289.03zm0-21.295h-4c-.091 0-.183 0-.274-.03v6.145c.091-.03.183-.03.274-.03h4c.106 0 .198 0 .289.03v-6.145c-.091.03-.182.03-.289.03zm0-21.296h-4c-.091 0-.183 0-.274-.03v6.145c.091-.03.183-.03.274-.03h4c.106 0 .198 0 .289.03v-6.145c-.091.03-.182.03-.289.03zm0 10.648h-4c-.091 0-.183 0-.274-.03v6.145c.091-.03.183-.03.274-.03h4c.106 0 .198 0 .289.03v-6.145c-.091.03-.182.03-.289.03zm0 21.295h-4c-.091 0-.183 0-.274-.03v6.145c.091-.03.183-.03.274-.03h4c.106 0 .198 0 .289.03v-6.145c-.091.03-.182.03-.289.03zm0 21.296h-4c-.091 0-.183 0-.274-.03v6.145c.091-.03.183-.03.274-.03h4c.106 0 .198 0 .289.03v-6.145c-.091.03-.182.03-.289.03zm0 0h-4c-.091 0-.183 0-.274-.03v6.145c.091-.03.183-.03.274-.03h4c.106 0 .198 0 .289.03v-6.145c-.091.03-.182.03-.289.03zm0 10.647h-4c-.091 0-.183 0-.274-.03v6.145c.091-.03.183-.03.274-.03h4c.106 0 .198 0 .289.03v-6.145c-.091.03-.182.03-.289.03zm0 0h-4c-.091 0-.183 0-.274-.03v6.145c.091-.03.183-.03.274-.03h4c.106 0 .198 0 .289.03v-6.145c-.091.03-.182.03-.289.03zm0-10.647h-4c-.091 0-.183 0-.274-.03v6.145c.091-.03.183-.03.274-.03h4c.106 0 .198 0 .289.03v-6.145c-.091.03-.182.03-.289.03zm0-10.648h-4c-.091 0-.183 0-.274-.03v6.145c.091-.03.183-.03.274-.03h4c.106 0 .198 0 .289.03v-6.145c-.091.03-.182.03-.289.03zm0-21.295h-4c-.091 0-.183 0-.274-.03v6.145c.091-.03.183-.03.274-.03h4c.106 0 .198 0 .289.03v-6.145c-.091.03-.182.03-.289.03zm0-21.296h-4c-.091 0-.183 0-.274-.03v6.145c.091-.03.183-.03.274-.03h4c.106 0 .198 0 .289.03v-6.145c-.091.03-.182.03-.289.03zm0 10.648h-4c-.091 0-.183 0-.274-.03v6.145c.091-.03.183-.03.274-.03h4c.106 0 .198 0 .289.03v-6.145c-.091.03-.182.03-.289.03zm0 21.295h-4c-.091 0-.183 0-.274-.03v6.145c.091-.03.183-.03.274-.03h4c.106 0 .198 0 .289.03v-6.145c-.091.03-.182.03-.289.03zm0 0h-4c-.091 0-.183 0-.274-.03v6.145c.091-.03.183-.03.274-.03h4c.106 0 .198 0 .289.03v-6.145c-.091.03-.182.03-.289.03zm0 10.648h-4c-.091 0-.183 0-.274-.03v6.145c.091-.03.183-.03.274-.03h4c.106 0 .198 0 .289.03v-6.145c-.091.03-.182.03-.289.03zm0 10.648h-4c-.091 0-.183 0-.274-.03v6.145c.091-.03.183-.03.274-.03h4c.106 0 .198 0 .289.03v-6.145c-.091.03-.182.03-.289.03zm0 10.647h-4c-.091 0-.183 0-.274-.03v6.145c.091-.03.183-.03.274-.03h4c.106 0 .198 0 .289.03v-6.145c-.091.03-.182.03-.289.03zm0 0h-4c-.091 0-.183 0-.274-.03v6.145c.091-.03.183-.03.274-.03h4c.106 0 .198 0 .289.03v-6.145c-.091.03-.182.03-.289.03zm0-10.647h-4c-.091 0-.183 0-.274-.03v6.145c.091-.03.183-.03.274-.03h4c.106 0 .198 0 .289.03v-6.145c-.091.03-.182.03-.289.03zm0-10.648h-4c-.091 0-.183 0-.274-.03v6.145c.091-.03.183-.03.274-.03h4c.106 0 .198 0 .289.03v-6.145c-.091.03-.182.03-.289.03zm0-10.648h-4c-.091 0-.183 0-.274-.03v6.145c.091-.03.183-.03.274-.03h4c.106 0 .198 0 .289.03v-6.145c-.091.03-.182.03-.289.03zm0-10.647h-4c-.091 0-.183 0-.274-.03v6.145c.091-.03.183-.03.274-.03h4c.106 0 .198 0 .289.03v-6.145c-.091.03-.182.03-.289.03zm0-21.296h-4c-.091 0-.183 0-.274-.03v6.145c.091-.03.183-.03.274-.03h4c.106 0 .198 0 .289.03v-6.145c-.091.03-.182.03-.289.03zm0 10.648h-4c-.091 0-.183 0-.274-.03v6.145c.091-.03.183-.03.274-.03h4c.106 0 .198 0 .289.03v-6.145c-.091.03-.182.03-.289.03zm0 0h-4c-.091 0-.183 0-.274-.03v6.145c.091-.03.183-.03.274-.03h4c.106 0 .198 0 .289.03v-6.145c-.091.03-.182.03-.289.03zm0 10.648h-4c-.091 0-.183 0-.274-.03v6.145c.091-.03.183-.03.274-.03h4c.106 0 .198 0 .289.03v-6.145c-.091.03-.182.03-.289.03zm0 10.647h-4c-.091 0-.183 0-.274-.03v6.145c.091-.03.183-.03.274-.03h4c.106 0 .198 0 .289.03v-6.145c-.091.03-.182.03-.289.03zm0 10.648h-4c-.091 0-.183 0-.274-.03v6.145c.091-.03.183-.03.274-.03h4c.106 0 .198 0 .289.03v-6.145c-.091.03-.182.03-.289.03zm0 10.648h-4c-.091 0-.183 0-.274-.03v6.145c.091-.03.183-.03.274-.03h4c.106 0 .198 0 .289.03v-6.145c-.091.03-.182.03-.289.03zm0 10.647h-4c-.091 0-.183 0-.274-.03v6.145c.091-.03.183-.03.274-.03h4c.106 0 .198 0 .289.03v-6.145c-.091.03-.182.03-.289.03zm-4 0c-.091 0-.183 0-.274-.03v6.145c.091-.03.183-.03.274-.03h4c.106 0 .198 0 .289.03v-6.145c-.091.03-.183.03-.289.03h-4zm0-10.647c-.091 0-.183 0-.274-.03v6.145c.091-.03.183-.03.274-.03h4c.106 0 .198 0 .289.03v-6.145c-.091.03-.183.03-.289.03h-4zm0-10.648c-.091 0-.183 0-.274-.03v6.145c.091-.03.183-.03.274-.03h4c.106 0 .198 0 .289.03v-6.145c-.091.03-.183.03-.289.03h-4zm0-10.648c-.091 0-.183 0-.274-.03v6.145c.091-.03.183-.03.274-.03h4c.106 0 .198 0 .289.03v-6.145c-.091.03-.183.03-.289.03h-4zm0-10.647c-.091 0-.183 0-.274-.03v6.145c.091-.03.183-.03.274-.03h4c.106 0 .198 0 .289.03v-6.145c-.091.03-.183.03-.289.03h-4zm0-10.648c-.091 0-.183 0-.274-.03v6.145c.091-.03.183-.03.274-.03h4c.106 0 .198 0 .289.03v-6.145c-.091.03-.183.03-.289.03h-4zm4-10.648h-4c-.091 0-.183 0-.274-.03v6.145c.091-.03.183-.03.274-.03h4c.106 0 .198 0 .289.03v-6.145c-.091.03-.182.03-.289.03zm.152-17.249C32.909 2.449 28.984 0 24.482 0c-6.723 0-12.214 5.491-12.214 12.214v103.039h.046c-.015.167-.03.35-.03.532l-.015.365h.015c.181 6.572 5.596 11.85 12.198 11.85h84.01v-11.91h7.24V6.069H35.038zm67.37 115.847H24.482a6.121 6.121 0 0 1-6.115-5.947 6.122 6.122 0 0 1 6.115-5.948c3.377 0 6.1 2.723 6.13 6.069h71.796v5.826zm7.24-11.91H35.175V97.822c-.091.03-.183.03-.289.03h-4c-.091 0-.183 0-.274-.03v7.773a12.117 12.117 0 0 0-6.13-1.658c-2.236 0-4.32.608-6.13 1.673V12.214a6.14 6.14 0 0 1 6.13-6.13c3.377 0 6.1 2.723 6.13 6.069v6.632c.091-.03.183-.03.274-.03h4c.106 0 .198 0 .289.03v-6.632h74.473v97.853zM30.886 87.204c-.091 0-.183 0-.274-.03v6.145c.091-.03.183-.03.274-.03h4c.106 0 .198 0 .289.03v-6.145c-.091.03-.183.03-.289.03h-4zm0-10.647c-.091 0-.183 0-.274-.03v6.145c.091-.03.183-.03.274-.03h4c.106 0 .198 0 .289.03v-6.145c-.091.03-.183.03-.289.03h-4zm0-10.648c-.091 0-.183 0-.274-.03v6.145c.091-.03.183-.03.274-.03h4c.106 0 .198 0 .289.03v-6.145c-.091.03-.183.03-.289.03h-4zm0-10.648c-.091 0-.183 0-.274-.03v6.145c.091-.03.183-.03.274-.03h4c.106 0 .198 0 .289.03v-6.145c-.091.03-.183.03-.289.03h-4zm0-10.647c-.091 0-.183 0-.274-.03v6.145c.091-.03.183-.03.274-.03h4c.106 0 .198 0 .289.03v-6.145c-.091.03-.183.03-.289.03h-4zm0-10.648c-.091 0-.183 0-.274-.03v6.145c.091-.03.183-.03.274-.03h4c.106 0 .198 0 .289.03v-6.145c-.091.03-.183.03-.289.03h-4zm0-10.648c-.091 0-.183 0-.274-.03v6.145c.091-.03.183-.03.274-.03h4c.106 0 .198 0 .289.03v-6.145c-.091.03-.183.03-.289.03h-4zm4 0h-4c-.091 0-.183 0-.274-.03v6.145c.091-.03.183-.03.274-.03h4c.106 0 .198 0 .289.03v-6.145c-.091.03-.182.03-.289.03zm0 10.648h-4c-.091 0-.183 0-.274-.03v6.145c.091-.03.183-.03.274-.03h4c.106 0 .198 0 .289.03v-6.145c-.091.03-.182.03-.289.03zm0 10.648h-4c-.091 0-.183 0-.274-.03v6.145c.091-.03.183-.03.274-.03h4c.106 0 .198 0 .289.03v-6.145c-.091.03-.182.03-.289.03zm0 10.647h-4c-.091 0-.183 0-.274-.03v6.145c.091-.03.183-.03.274-.03h4c.106 0 .198 0 .289.03v-6.145c-.091.03-.182.03-.289.03zm0 10.648h-4c-.091 0-.183 0-.274-.03v6.145c.091-.03.183-.03.274-.03h4c.106 0 .198 0 .289.03v-6.145c-.091.03-.182.03-.289.03zm0 10.648h-4c-.091 0-.183 0-.274-.03v6.145c.091-.03.183-.03.274-.03h4c.106 0 .198 0 .289.03v-6.145c-.091.03-.182.03-.289.03zm0 10.647h-4c-.091 0-.183 0-.274-.03v6.145c.091-.03.183-.03.274-.03h4c.106 0 .198 0 .289.03v-6.145c-.091.03-.182.03-.289.03zm0 0h-4c-.091 0-.183 0-.274-.03v6.145c.091-.03.183-.03.274-.03h4c.106 0 .198 0 .289.03v-6.145c-.091.03-.182.03-.289.03zm0-10.647h-4c-.091 0-.183 0-.274-.03v6.145c.091-.03.183-.03.274-.03h4c.106 0 .198 0 .289.03v-6.145c-.091.03-.182.03-.289.03zm0-10.648h-4c-.091 0-.183 0-.274-.03v6.145c.091-.03.183-.03.274-.03h4c.106 0 .198 0 .289.03v-6.145c-.091.03-.182.03-.289.03zm0-10.648h-4c-.091 0-.183 0-.274-.03v6.145c.091-.03.183-.03.274-.03h4c.106 0 .198 0 .289.03v-6.145c-.091.03-.182.03-.289.03zm0-10.647h-4c-.091 0-.183 0-.274-.03v6.145c.091-.03.183-.03.274-.03h4c.106 0 .198 0 .289.03v-6.145c-.091.03-.182.03-.289.03zm0 0h-4c-.091 0-.183 0-.274-.03v6.145c.091-.03.183-.03.274-.03h4c.106 0 .198 0 .289.03v-6.145c-.091.03-.182.03-.289.03zm0-21.296h-4c-.091 0-.183 0-.274-.03v6.145c.091-.03.183-.03.274-.03h4c.106 0 .198 0 .289.03v-6.145c-.091.03-.182.03-.289.03zm0 10.648h-4c-.091 0-.183 0-.274-.03v6.145c.091-.03.183-.03.274-.03h4c.106 0 .198 0 .289.03v-6.145c-.091.03-.182.03-.289.03zm0 21.295h-4c-.091 0-.183 0-.274-.03v6.145c.091-.03.183-.03.274-.03h4c.106 0 .198 0 .289.03v-6.145c-.091.03-.182.03-.289.03zm0 10.648h-4c-.091 0-.183 0-.274-.03v6.145c.091-.03.183-.03.274-.03h4c.106 0 .198 0 .289.03v-6.145c-.091.03-.182.03-.289.03zm0 10.648h-4c-.091 0-.183 0-.274-.03v6.145c.091-.03.183-.03.274-.03h4c.106 0 .198 0 .289.03v-6.145c-.091.03-.182.03-.289.03zm0 10.647h-4c-.091 0-.183 0-.274-.03v6.145c.091-.03.183-.03.274-.03h4c.106 0 .198 0 .289.03v-6.145c-.091.03-.182.03-.289.03zm0 0h-4c-.091 0-.183 0-.274-.03v6.145c.091-.03.183-.03.274-.03h4c.106 0 .198 0 .289.03v-6.145c-.091.03-.182.03-.289.03zm0-10.647h-4c-.091 0-.183 0-.274-.03v6.145c.091-.03.183-.03.274-.03h4c.106 0 .198 0 .289.03v-6.145c-.091.03-.182.03-.289.03zm0-10.648h-4c-.091 0-.183 0-.274-.03v6.145c.091-.03.183-.03.274-.03h4c.106 0 .198 0 .289.03v-6.145c-.091.03-.182.03-.289.03zm0 0h-4c-.091 0-.183 0-.274-.03v6.145c.091-.03.183-.03.274-.03h4c.106 0 .198 0 .289.03v-6.145c-.091.03-.182.03-.289.03zm0-21.295h-4c-.091 0-.183 0-.274-.03v6.145c.091-.03.183-.03.274-.03h4c.106 0 .198 0 .289.03v-6.145c-.091.03-.182.03-.289.03zm0-21.296h-4c-.091 0-.183 0-.274-.03v6.145c.091-.03.183-.03.274-.03h4c.106 0 .198 0 .289.03v-6.145c-.091.03-.182.03-.289.03zm0 10.648h-4c-.091 0-.183 0-.274-.03v6.145c.091-.03.183-.03.274-.03h4c.106 0 .198 0 .289.03v-6.145c-.091.03-.182.03-.289.03zm0 21.295h-4c-.091 0-.183 0-.274-.03v6.145c.091-.03.183-.03.274-.03h4c.106 0 .198 0 .289.03v-6.145c-.091.03-.182.03-.289.03zm0 21.296h-4c-.091 0-.183 0-.274-.03v6.145c.091-.03.183-.03.274-.03h4c.106 0 .198 0 .289.03v-6.145c-.091.03-.182.03-.289.03zm0 10.647h-4c-.091 0-.183 0-.274-.03v6.145c.091-.03.183-.03.274-.03h4c.106 0 .198 0 .289.03v-6.145c-.091.03-.182.03-.289.03zm0 0h-4c-.091 0-.183 0-.274-.03v6.145c.091-.03.183-.03.274-.03h4c.106 0 .198 0 .289.03v-6.145c-.091.03-.182.03-.289.03zm0 0h-4c-.091 0-.183 0-.274-.03v6.145c.091-.03.183-.03.274-.03h4c.106 0 .198 0 .289.03v-6.145c-.091.03-.182.03-.289.03zm0-21.295h-4c-.091 0-.183 0-.274-.03v6.145c.091-.03.183-.03.274-.03h4c.106 0 .198 0 .289.03v-6.145c-.091.03-.182.03-.289.03zm0-21.295h-4c-.091 0-.183 0-.274-.03v6.145c.091-.03.183-.03.274-.03h4c.106 0 .198 0 .289.03v-6.145c-.091.03-.182.03-.289.03zm0-21.296h-4c-.091 0-.183 0-.274-.03v6.145c.091-.03.183-.03.274-.03h4c.106 0 .198 0 .289.03v-6.145c-.091.03-.182.03-.289.03zm0 10.648h-4c-.091 0-.183 0-.274-.03v6.145c.091-.03.183-.03.274-.03h4c.106 0 .198 0 .289.03v-6.145c-.091.03-.182.03-.289.03zm0 21.295h-4c-.091 0-.183 0-.274-.03v6.145c.091-.03.183-.03.274-.03h4c.106 0 .198 0 .289.03v-6.145c-.091.03-.182.03-.289.03zm0 21.296h-4c-.091 0-.183 0-.274-.03v6.145c.091-.03.183-.03.274-.03h4c.106 0 .198 0 .289.03v-6.145c-.091.03-.182.03-.289.03zM103.998 58.3H79.914V29.595h24.084V58.3zm-42.464 6.085H44.295v35.746h17.239V64.385zm21.295 0H65.59v35.746h17.239V64.385zm21.296 0H86.886v35.746h17.239V64.385zm-28.521-33.27H44.422v3.042h31.182v-3.042zm0 7.606H44.422v3.042h31.182v-3.042zm0 7.605H44.422v3.042h31.182v-3.042zm0 7.606H44.422v3.042h31.182v-3.042zm28.394-32.704H44.296v4.563h59.703v-4.563z"/></svg>