<svg xmlns="http://www.w3.org/2000/svg" viewBox="0 0 512 512"><defs><style>.cls-2{fill:#8a4711}.cls-3{fill:#505560}.cls-4{fill:#636978}.cls-8{fill:#fff}.cls-10{fill:none;stroke:#595f6b;stroke-linecap:round;stroke-miterlimit:10;stroke-width:10px}.cls-16{fill:#c4c4c4}</style></defs><circle cx="256" cy="256" r="256" style="fill:#00b529" id="BULINE"/><g id="Icons"><path class="cls-2" d="M480.55 379.07a257.27 257.27 0 0 1-92 96 253.88 253.88 0 0 1-38.48 19.11q-6.83 2.71-13.84 5a257.38 257.38 0 0 1-159.36.39q-7-2.28-13.84-5a252.31 252.31 0 0 1-37.56-18.31 257.24 257.24 0 0 1-94.06-97.27z"/><path class="cls-3" d="M217.6 269.31h79v81.7h-79z"/><path class="cls-4" d="M465.27 46.51v209a30.82 30.82 0 0 1-30.81 30.8H79.74a30.81 30.81 0 0 1-30.81-30.8v-209a30.8 30.8 0 0 1 30.81-30.8h354.72a30.81 30.81 0 0 1 30.81 30.8z"/><path d="M170.16 286.33H79.74a30.81 30.81 0 0 1-30.81-30.8v-209a30.8 30.8 0 0 1 30.81-30.8h90.42a30.8 30.8 0 0 0-30.81 30.8v209a30.81 30.81 0 0 0 30.81 30.8z" style="fill:#595f6b"/><rect class="cls-4" x="183.9" y="345.81" width="146.39" height="33.26" rx="16.63"/><path d="M465.27 46.51V251H48.93V46.51a30.8 30.8 0 0 1 30.81-30.8h354.72a30.81 30.81 0 0 1 30.81 30.8z" style="fill:#b3f2d7"/><path d="M170.16 15.71a30.8 30.8 0 0 0-30.81 30.8V251H48.93V46.51a30.8 30.8 0 0 1 30.81-30.8z" style="fill:#a3d8bf"/><path class="cls-8" d="M426 61.78v147.29a23.65 23.65 0 0 1-23.65 23.65H111.83a23.64 23.64 0 0 1-23.64-23.65V61.78a23.63 23.63 0 0 1 23.64-23.64h290.53A23.64 23.64 0 0 1 426 61.78z"/><path d="M426 61.78v13.78H88.19V61.78a23.63 23.63 0 0 1 23.64-23.64h290.53A23.64 23.64 0 0 1 426 61.78z" style="fill:#23a8fe"/><path class="cls-3" d="m188.33 127.24 9.38-3.66.9-.35a7.62 7.62 0 0 0 4.87-7.11v-.05a7.64 7.64 0 0 0-10.56-7.07l-39.49 16.34a7.65 7.65 0 0 0-4.72 7.06v3.86a7.62 7.62 0 0 0 4.72 7.06l15.62 6.46 23.87 9.88a7.65 7.65 0 0 0 10.56-7.06 7.64 7.64 0 0 0-4.88-7.12l-10.26-4a7.64 7.64 0 0 1-.01-14.24zM262.26 94.59a7.64 7.64 0 0 0-7.45 6l-5.12 23-9.57 43v.09a7.79 7.79 0 0 0-.17 1.58 7.65 7.65 0 0 0 15.05 1.62l.72-3.22 9.57-43.08 4.38-19.7a7.63 7.63 0 0 0-7.41-9.29zM356.41 125.35 316.92 109a7.64 7.64 0 0 0-10.56 7.06v.05a7.63 7.63 0 0 0 4.88 7.11l10.28 4a7.64 7.64 0 0 1 0 14.24l-10.27 4a7.66 7.66 0 0 0-4.88 7.12 7.65 7.65 0 0 0 10.56 7.06l39.49-16.34a7.63 7.63 0 0 0 4.71-7.06v-3.86a7.65 7.65 0 0 0-4.72-7.03z"/><path class="cls-10" d="M148.72 191.98h114.72M148.72 214.84h68.88M235.46 214.84h34.44M291.77 191.98h63.92M291.77 214.84h63.92"/><circle cx="118.96" cy="56.85" r="9.42" style="fill:#f92814"/><circle cx="148.72" cy="56.85" r="9.42" style="fill:#ffda45"/><circle cx="178.47" cy="56.85" r="9.42" style="fill:#76d67b"/><path style="fill:#e8ba64" d="M219.53 342.22h75.14v66.57h-75.14z"/><path class="cls-2" d="M291 361.46h-67.83a54.85 54.85 0 0 1-54.82-53l-2.29-67.58a71.79 71.79 0 0 1 71.75-74.22h38.58a71.79 71.79 0 0 1 71.75 74.22l-2.29 67.58a54.86 54.86 0 0 1-54.85 53z"/><path d="M336.27 338.34a54.83 54.83 0 0 1-44.76 23.12h-67.85a54.86 54.86 0 0 1-54.82-53l-2.29-67.58a71.77 71.77 0 0 1 40-66.82 71.5 71.5 0 0 0-16.14 47.83l2.28 67.59a54.86 54.86 0 0 0 54.82 53h67.87a54.75 54.75 0 0 0 20.89-4.14z" style="fill:#773910"/><path class="cls-8" d="M388.59 475.08a253.88 253.88 0 0 1-38.48 19.11q-6.83 2.71-13.84 5a257.38 257.38 0 0 1-159.36.39q-7-2.28-13.84-5a252.31 252.31 0 0 1-37.56-18.31l2.24-27.68c2.49-30.7 32.35-54.59 68.34-54.59h122c36 0 65.85 23.88 68.34 54.65z"/><path class="cls-16" d="M176.91 472.16v27.44q-7-2.28-13.84-5v-22.44a6.92 6.92 0 0 1 13.84 0zM350.11 472.16v22q-6.83 2.71-13.84 5v-27a6.92 6.92 0 0 1 13.84 0z"/></g></svg>